# xmcd
#
# Track frame offsets:
#        150
#        20425
#        40625
#
# Disc length: 829 seconds
#
# Revision: 0
# Processed by: cddbd v1.5.1PL0 Copyright (c) Steve Scherf et al.
# Submitted via: ExactAudioCopy v0.95a5
#
DISCID=17033b03
DTITLE=Area 3 - Seventh Herven
DYEAR=1900
DGENRE=JPop
TTITLE0=Seventh Heaven
TTITLE1=Be A Girl
TTITLE2=Seventh Heaven Night Cover Ver
EXTD=
EXTT0=
EXTT1=
EXTT2=
PLAYORDER=
